<?xml version="1.0" ?><svg id="Layer_1" style="enable-background:new 0 0 32 32;" version="1.1" viewBox="0 0 32 32" xml:space="preserve" xmlns="http://www.w3.org/2000/svg" xmlns:xlink="http://www.w3.org/1999/xlink"><style type="text/css">
	.st0{fill:none;stroke:#000000;stroke-width:1.5;stroke-linecap:round;stroke-linejoin:round;stroke-miterlimit:10;}
</style><g><path class="st0" d="M20.6,12l-0.2,3.4l-0.3,5.1l-0.3,4.3c-2,2.3-4.9,3.7-8.1,3.7C5.8,28.6,1,23.8,1,17.9S5.8,7.2,11.7,7.2   C15.4,7.2,18.7,9.1,20.6,12z"/><ellipse class="st0" cx="11.7" cy="17.9" rx="4.2" ry="10.7"/><path class="st0" d="M20.4,15.4l-0.3,5.1c-2,1-5,1.6-8.4,1.6C5.8,22.1,1,20.2,1,17.9s4.8-4.2,10.7-4.2   C15.3,13.6,18.5,14.3,20.4,15.4z"/><polygon class="st0" points="29,27 19.6,27 20.9,7.6 27.8,7.6  "/><path class="st0" d="M31,30.2H17.7v-1.9c0-0.7,0.5-1.2,1.2-1.2h10.9c0.7,0,1.2,0.5,1.2,1.2C31,28.3,31,30.2,31,30.2z"/><path class="st0" d="M31,1.8v4.3c0,0.8-0.6,1.4-1.4,1.4H19.1c-0.8,0-1.4-0.6-1.4-1.4V1.8h2.7v2.9H23V1.8h2.7v2.9h2.7V1.8H31z"/></g></svg>