<svg width="62" height="62" viewBox="0 0 62 62" fill="none" xmlns="http://www.w3.org/2000/svg">
<path d="M61.9999 31C62.0055 35.1964 61.156 39.35 59.5034 43.2074L59.4007 43.444C56.6053 49.8035 51.7581 55.0419 45.6342 58.3216C39.5103 61.6012 32.4636 62.7327 25.6208 61.5349C25.4347 61.5019 25.2488 61.4677 25.0632 61.4322C23.1457 61.0605 21.2681 60.5068 19.4557 59.7786C19.1613 59.6603 18.869 59.5377 18.5789 59.4108C18.3808 59.3246 18.1827 59.2356 17.9864 59.1439C12.6173 56.6555 8.07147 52.684 4.88473 47.6976C1.69798 42.7112 0.00315196 36.9177 0 31C0 13.8794 13.8794 0 31 0C48.1206 0 61.9999 13.8794 61.9999 31Z" fill="#FFB701"/>
<path opacity="0.2" d="M25.6209 61.5349C25.4348 61.5019 25.2489 61.4677 25.0633 61.4322C24.9422 57.9186 24.5268 50.7069 23.1098 43.1541C22.3348 39.0205 21.2589 34.7832 19.7667 30.9954C19.2555 29.6847 18.6716 28.4036 18.0177 27.158C16.5099 24.3102 14.6811 21.9127 12.4634 20.2885L12.7899 19.8427C14.6343 21.1946 16.2919 23.0925 17.7627 25.5364C18.2039 26.2683 18.6276 27.0491 19.0339 27.8789C19.4696 28.7667 19.885 29.7092 20.2803 30.7065C20.5325 31.3411 20.7762 31.9978 21.0113 32.6765C22.0349 35.6233 22.9049 38.9857 23.6215 42.7634C23.7802 43.598 23.9312 44.4531 24.0746 45.3287C25.1853 52.1129 25.5201 58.3854 25.6209 61.5349Z" fill="black"/>
<path opacity="0.2" d="M18.5788 59.4108C18.3807 59.3246 18.1826 59.2356 17.9863 59.1439C17.7947 57.0619 17.4425 54.4792 16.7986 52.0277C16.5166 50.9266 16.1546 49.8476 15.7155 48.7993C14.9808 47.0796 14.0297 45.6176 12.7998 44.7161L13.1263 44.2712C14.414 45.2141 15.4073 46.7045 16.1749 48.448C17.0398 50.4125 17.6167 52.699 18.001 54.8837C18.2862 56.5061 18.466 58.0736 18.5788 59.4108Z" fill="black"/>
<path opacity="0.2" d="M9.37898 20.2757C10.9031 20.2757 12.1386 19.0402 12.1386 17.5161C12.1386 15.992 10.9031 14.7565 9.37898 14.7565C7.8549 14.7565 6.61938 15.992 6.61938 17.5161C6.61938 19.0402 7.8549 20.2757 9.37898 20.2757Z" fill="black"/>
<path opacity="0.2" d="M10.2677 44.0309C11.7917 44.0309 13.0273 42.7954 13.0273 41.2713C13.0273 39.7472 11.7917 38.5117 10.2677 38.5117C8.74357 38.5117 7.50806 39.7472 7.50806 41.2713C7.50806 42.7954 8.74357 44.0309 10.2677 44.0309Z" fill="black"/>
<path opacity="0.2" d="M20.3347 22.1513C19.7496 25.4529 21.0414 28.4423 21.0414 28.4423C21.0414 28.4423 23.282 26.079 23.8672 22.7775C24.4524 19.4759 23.1605 16.4865 23.1605 16.4865C23.1605 16.4865 20.9199 18.8498 20.3347 22.1513Z" fill="black"/>
<path opacity="0.2" d="M11.1636 29.9885C14.3126 31.14 17.477 30.401 17.477 30.401C17.477 30.401 15.5357 27.7951 12.3867 26.6436C9.23761 25.4921 6.07324 26.2311 6.07324 26.2311C6.07324 26.2311 8.01451 28.837 11.1636 29.9885Z" fill="black"/>
<path opacity="0.2" d="M10.6295 51.0246C12.8367 51.8317 15.0578 51.3051 15.0578 51.3051C15.0578 51.3051 13.7003 49.4701 11.493 48.663C9.28579 47.8558 7.0647 48.3824 7.0647 48.3824C7.0647 48.3824 8.42224 50.2174 10.6295 51.0246Z" fill="black"/>
<path d="M30.9362 37.8648C37.6108 37.8648 43.0217 32.454 43.0217 25.7794C43.0217 19.1048 37.6108 13.694 30.9362 13.694C24.2617 13.694 18.8508 19.1048 18.8508 25.7794C18.8508 32.454 24.2617 37.8648 30.9362 37.8648Z" fill="#D0CDE1"/>
<path d="M26.2156 35.0322C26.2156 35.0322 27.7263 42.208 27.7263 42.9633C27.7263 43.7186 34.902 47.1177 34.902 47.1177L41.3223 45.9847L43.5884 39.1866C43.5884 39.1866 39.8117 33.5216 39.8117 31.2556L26.2156 35.0322Z" fill="#D0CDE1"/>
<path d="M59.5035 43.2073L59.4008 43.444C56.6053 49.8035 51.7581 55.0419 45.6343 58.3216C39.5104 61.6012 32.4637 62.7326 25.6209 61.5349C25.4347 61.5019 25.2488 61.4677 25.0633 61.4322C23.1458 61.0605 21.2681 60.5068 19.4558 59.7786C19.1614 59.6602 18.8691 59.5377 18.579 59.4108C18.3809 59.3246 18.1827 59.2356 17.9865 59.1439C16.2074 58.3197 14.5107 57.3284 12.9192 56.1833L11.4866 52.0276L12.2918 51.4132L13.9482 50.1484L15.7156 48.7993L16.1751 48.448L23.1097 43.1541L23.6215 42.7634L27.2259 40.012L27.2269 40.011C27.2269 40.011 31.1248 46.3624 36.7901 44.4739C42.4554 42.5855 42.3315 37.1706 42.3315 37.1706L59.5035 43.2073Z" fill="#2F2E41"/>
<path d="M20.4561 16.0425C20.4561 16.0425 24.2932 7.72889 31.6475 9.64742C39.0019 11.566 43.1588 14.4438 43.4785 17.3216C43.7983 20.1994 43.3186 24.5161 43.3186 24.5161C43.3186 24.5161 42.5193 18.6006 37.4032 19.8796C32.2871 21.1587 24.2932 20.1994 24.2932 20.1994L23.0141 31.7106C23.0141 31.7106 21.5752 29.6322 19.9764 30.9112C18.3777 32.1902 15.34 18.6006 20.4561 16.0425Z" fill="#2F2E41"/>
<path d="M19.4558 59.7786C19.1614 59.6602 18.8691 59.5377 18.579 59.4108C18.3809 59.3246 18.1828 59.2356 17.9865 59.1439C15.0442 57.7795 12.3336 55.9629 9.95312 53.7602C10.796 52.6119 11.4866 52.0276 11.4866 52.0276H17.1519L18.0012 54.8837L19.4558 59.7786Z" fill="#2F2E41"/>
<path d="M54.5408 42.5855L59.4009 43.444C58.1003 46.4069 56.3437 49.1478 54.1951 51.5672L54.5408 42.5855Z" fill="#2F2E41"/>
</svg>
