<svg width="34" height="34" viewBox="0 0 34 34" fill="none" xmlns="http://www.w3.org/2000/svg">
<rect x="1" y="1" width="32" height="32" rx="8" fill="#FFB701" stroke="#FFB701" stroke-width="2"/>
<path d="M27.572 13.1962H17.8993L14.679 7.47877C14.4245 7.02719 13.8512 6.86665 13.3986 7.12031C12.9457 7.37396 12.7848 7.94549 13.0391 8.39718L15.7422 13.1963H7.42808C6.63941 13.1963 6 13.8341 6 14.6203C6 15.4069 6.63941 16.0444 7.42808 16.0444C7.60691 16.0444 7.75917 16.1739 7.78734 16.35L8.92251 23.4534C9.06488 24.3443 9.8355 25 10.7402 25H17.4999H24.26C25.1647 25 25.9352 24.3442 26.0778 23.4534L27.2128 16.35C27.2408 16.174 27.3931 16.0444 27.5719 16.0444C28.3606 16.0444 29 15.4069 29 14.6203C29 13.8339 28.3607 13.1962 27.572 13.1962ZM13.1596 22.4174C13.1297 22.4207 13.1 22.4223 13.0708 22.4223C12.6774 22.4223 12.3383 22.1276 12.2931 21.7284L11.88 18.0767C11.8314 17.6478 12.1408 17.2609 12.5709 17.2125C13.0008 17.1633 13.3888 17.4726 13.4374 17.9014L13.8505 21.5532C13.899 21.9821 13.5897 22.369 13.1596 22.4174ZM18.2836 21.6408C18.2836 22.0724 17.9327 22.4222 17.4999 22.4222C17.0672 22.4222 16.7163 22.0723 16.7163 21.6408V17.9889C16.7163 17.5573 17.0672 17.2076 17.4999 17.2076C17.9328 17.2076 18.2836 17.5574 18.2836 17.9889V21.6408ZM23.1201 18.0766L22.7071 21.7284C22.6619 22.1275 22.3226 22.4223 21.9291 22.4223C21.8998 22.4223 21.8701 22.4207 21.8403 22.4174C21.4102 22.369 21.1008 21.9821 21.1494 21.5532L21.5625 17.9014C21.6111 17.4726 21.9977 17.1635 22.4292 17.2125C22.8594 17.2609 23.1687 17.6478 23.1201 18.0766Z" fill="white"/>
</svg>
