<svg width="37" height="30" viewBox="0 0 37 30" fill="none" xmlns="http://www.w3.org/2000/svg">
<path d="M34.7028 9.99636H19.1424L13.9618 0.7724C13.5524 0.0438662 12.6302 -0.215131 11.902 0.194091C11.1735 0.603313 10.9147 1.52536 11.3237 2.25408L15.6722 9.99655H2.29735C1.02861 9.99655 0 11.0255 0 12.2939C0 13.5628 1.02861 14.5914 2.29735 14.5914C2.58502 14.5914 2.82997 14.8003 2.87529 15.0844L4.70143 26.5443C4.93046 27.9816 6.17015 29.0394 7.62555 29.0394H18.4999H29.3748C30.8302 29.0394 32.0697 27.9814 32.2991 26.5443L34.1249 15.0844C34.17 14.8005 34.415 14.5914 34.7027 14.5914C35.9714 14.5914 37 13.5628 37 12.2939C37 11.0252 35.9716 9.99636 34.7028 9.99636ZM11.5176 24.8728C11.4695 24.8782 11.4218 24.8808 11.3748 24.8808C10.7419 24.8808 10.1963 24.4053 10.1236 23.7614L9.4591 17.87C9.38103 17.1781 9.87868 16.5539 10.5706 16.4758C11.2621 16.3965 11.8863 16.8954 11.9646 17.5873L12.6291 23.4787C12.7072 24.1706 12.2095 24.7948 11.5176 24.8728ZM19.7605 23.62C19.7605 24.3164 19.1961 24.8806 18.4999 24.8806C17.8038 24.8806 17.2393 24.3162 17.2393 23.62V17.7285C17.2393 17.0321 17.8038 16.4679 18.4999 16.4679C19.1963 16.4679 19.7605 17.0323 19.7605 17.7285V23.62ZM27.5411 17.8698L26.8766 23.7614C26.8039 24.4052 26.2581 24.8808 25.625 24.8808C25.5779 24.8808 25.5301 24.8782 25.4822 24.8728C24.7903 24.7948 24.2927 24.1706 24.3707 23.4787L25.0353 17.5873C25.1135 16.8954 25.7355 16.3968 26.4296 16.4758C27.1217 16.5539 27.6192 17.1781 27.5411 17.8698Z" fill="white"/>
</svg>
