<svg width="40" height="42" viewBox="0 0 40 42" fill="none" xmlns="http://www.w3.org/2000/svg">
<ellipse cx="20" cy="21" rx="20" ry="21" fill="#3F4A58"/>
<g clip-path="url(#clip0_7_1912)">
<path d="M20.0001 24.0001C20.8382 24.0001 21.5239 23.2801 21.5239 22.4001C21.5239 21.5201 20.8382 20.8 20.0001 20.8C19.162 20.8 18.4763 21.5201 18.4763 22.4001C18.4763 23.2801 19.162 24.0001 20.0001 24.0001Z" fill="#9CA7B5"/>
<path d="M24.5715 16.7997H23.8096V15.1997C23.8096 12.9917 22.1029 11.1997 20 11.1997C17.8972 11.1997 16.1905 12.9917 16.1905 15.1997V16.7997H15.4286C14.5905 16.7997 13.9048 17.5197 13.9048 18.3997V26.3997C13.9048 27.2797 14.5905 27.9997 15.4286 27.9997H24.5714C25.4095 27.9997 26.0953 27.2797 26.0953 26.3997V18.3997C26.0953 17.5197 25.4096 16.7997 24.5715 16.7997ZM17.6381 15.1997C17.6381 13.8317 18.6972 12.7197 20 12.7197C21.3029 12.7197 22.3619 13.8317 22.3619 15.1997V16.7997H17.6381V15.1997ZM24.5715 26.3997H15.4286V18.3997H24.5714V26.3997H24.5715Z" fill="#9CA7B5"/>
</g>
<defs>
<clipPath id="clip0_7_1912">
<rect width="16" height="16.8" fill="white" transform="translate(12 11.1997)"/>
</clipPath>
</defs>
</svg>
