<svg width="18" height="17" viewBox="0 0 18 17" fill="none" xmlns="http://www.w3.org/2000/svg">
<path d="M16.4775 12.7475C16.4775 13.0175 16.4175 13.295 16.29 13.565C16.1625 13.835 15.9975 14.09 15.78 14.33C15.4125 14.735 15.0075 15.0275 14.55 15.215C14.1 15.4025 13.6125 15.5 13.0875 15.5C12.3225 15.5 11.505 15.32 10.6425 14.9525C9.78 14.585 8.9175 14.09 8.0625 13.4675C7.19108 12.8301 6.36877 12.1281 5.6025 11.3675C4.84408 10.604 4.14457 9.78416 3.51 8.915C2.895 8.06 2.4 7.205 2.04 6.3575C1.68 5.5025 1.5 4.685 1.5 3.905C1.5 3.395 1.59 2.9075 1.77 2.4575C1.95 2 2.235 1.58 2.6325 1.205C3.1125 0.7325 3.6375 0.5 4.1925 0.5C4.4025 0.5 4.6125 0.545 4.8 0.635C4.995 0.725 5.1675 0.86 5.3025 1.055L7.0425 3.5075C7.1775 3.695 7.275 3.8675 7.3425 4.0325C7.41 4.19 7.4475 4.3475 7.4475 4.49C7.4475 4.67 7.395 4.85 7.29 5.0225C7.1925 5.195 7.05 5.375 6.87 5.555L6.3 6.1475C6.2175 6.23 6.18 6.3275 6.18 6.4475C6.18 6.5075 6.1875 6.56 6.2025 6.62C6.225 6.68 6.2475 6.725 6.2625 6.77C6.3975 7.0175 6.63 7.34 6.96 7.73C7.2975 8.12 7.6575 8.5175 8.0475 8.915C8.4525 9.3125 8.8425 9.68 9.24 10.0175C9.63 10.3475 9.9525 10.5725 10.2075 10.7075C10.245 10.7225 10.29 10.745 10.3425 10.7675C10.4025 10.79 10.4625 10.7975 10.53 10.7975C10.6575 10.7975 10.755 10.7525 10.8375 10.67L11.4075 10.1075C11.595 9.92 11.775 9.7775 11.9475 9.6875C12.12 9.5825 12.2925 9.53 12.48 9.53C12.6225 9.53 12.7725 9.56 12.9375 9.6275C13.1025 9.695 13.275 9.7925 13.4625 9.92L15.945 11.6825C16.14 11.8175 16.275 11.975 16.3575 12.1625C16.4325 12.35 16.4775 12.5375 16.4775 12.7475Z" stroke="#898088" stroke-width="1.5" stroke-miterlimit="10"/>
</svg>
