<svg width="400" height="200" version="1.1" viewBox="0 0 106 52.9" xmlns="http://www.w3.org/2000/svg">
  <path d="m15.9 25.7c0-7.88 10.2-14.6 24.4-16.9v8.24h-13v3.31h13v8.07h25c4.91 0 8.9-2.52 8.9-5.62 0-3.11-3.98-5.62-8.9-5.62-0.0816 0-0.163 9.54e-4 -0.244 2e-3v-0.133h-16.6v-12.2c-2.8 0.0732-5.53 0.255-8.18 0.536-20.6 2.19-36 10.4-36 20.2 0 11.5 21 20.8 47 20.8 25.9 0 47-9.29 47-20.8 0-10.1-16.4-18.5-38-20.4l-5e-3 3.18c15.6 1.92 27.1 8.96 27.1 17.3 0 9.86-16 17.9-35.7 17.9-19.7 0-35.7-8-35.7-17.9zm32.5-5.39h8.85c-0.0233 0.03-0.046 0.0604-0.0679 0.0909 0.163-0.0093 0.328-0.014 0.496-0.014 2.4 0 4.34 1.02 4.34 2.28 0 1.26-1.94 2.28-4.34 2.28h-9.28zm-15.9 9.22 0.849 0.314 4.18e-4 6.75c-0.0017 0.337 0.0335 0.575 0.11 0.712 0.0739 0.136 0.205 0.24 0.391 0.309l0.113 0.0418-0.158 0.427-2.52-0.934 0.158-0.427c0.0842 0.0232 0.163 0.0486 0.242 0.0776 0.163 0.0604 0.277 0.083 0.34 0.0686 0.123-0.0274 0.202-0.0911 0.238-0.188 0.0265-0.0711 0.0444-0.264 0.0512-0.575l0.0288-1.55-2.56-0.948-1.12 1.33c-0.116 0.138-0.185 0.237-0.207 0.298-0.0251 0.0676-0.0295 0.133-0.014 0.196 0.0186 0.0656 0.0516 0.122 0.103 0.169 0.0512 0.0486 0.146 0.0972 0.281 0.147 0.0921 0.0342 0.166 0.0635 0.222 0.0881l-0.158 0.427-2.12-0.786 0.158-0.427c0.196 0.0725 0.346 0.106 0.447 0.0986 0.0993-7e-3 0.199-0.0412 0.295-0.104 0.0958-0.0611 0.248-0.212 0.457-0.451zm-2.35 3.64 2.19 0.811 0.0386-3.46zm5.03 0.572 0.0983-0.445c0.266 0.0588 0.508 0.0784 0.729 0.057 0.219-0.0209 0.47-0.0853 0.751-0.196l0.419 0.0928-0.196 0.888c0.519-0.253 0.938-0.407 1.26-0.463 0.32-0.0565 0.626-0.0512 0.919 0.014 0.605 0.134 1.07 0.483 1.39 1.05 0.32 0.566 0.398 1.23 0.23 1.98-0.186 0.839-0.58 1.47-1.18 1.9-0.55 0.396-1.17 0.516-1.87 0.362-0.347-0.077-0.658-0.216-0.932-0.415-0.198-0.141-0.415-0.363-0.647-0.665l-0.389 1.76c-0.0581 0.262-0.0849 0.417-0.0802 0.466 8.6e-4 0.0723 0.0249 0.136 0.0672 0.193 0.0439 0.0588 0.104 0.103 0.183 0.135 0.057 0.024 0.257 0.0739 0.6 0.15l-0.0983 0.445-2.73-0.605 0.0986-0.445 0.24 0.0532c0.244 0.0539 0.407 0.0711 0.488 0.0493 0.0821-0.0186 0.149-0.0656 0.201-0.136 0.0351-0.0567 0.0867-0.239 0.155-0.546l1.21-5.48zm1.68 0.937-0.401 1.81c-0.0528 0.239-0.0776 0.419-0.076 0.541 0.0046 0.187 0.0495 0.367 0.141 0.537 0.0893 0.172 0.229 0.329 0.415 0.479 0.187 0.148 0.397 0.247 0.626 0.298 0.459 0.102 0.895 0.0186 1.31-0.251 0.414-0.269 0.697-0.752 0.852-1.45 0.144-0.651 0.116-1.19-0.083-1.6-0.201-0.418-0.491-0.668-0.872-0.752-0.248-0.0549-0.529-0.0491-0.847 0.0163-0.319 0.0639-0.672 0.191-1.06 0.375zm9.11 3.87 0.308 0.319c-0.783 0.814-1.65 1.16-2.59 1.05-0.737-0.089-1.33-0.425-1.77-1.01-0.442-0.585-0.618-1.26-0.524-2.04 0.0628-0.52 0.237-0.971 0.522-1.36 0.285-0.385 0.651-0.667 1.1-0.845 0.447-0.179 0.942-0.235 1.48-0.169 0.618 0.0746 1.11 0.287 1.49 0.641 0.377 0.353 0.546 0.683 0.509 0.99-0.0209 0.165-0.0832 0.286-0.191 0.365-0.109 0.0784-0.224 0.109-0.347 0.0944-0.0644-7e-3 -0.125-0.0318-0.183-0.0707-0.0567-0.0404-0.113-0.0995-0.171-0.179-0.0235-0.0363-0.0646-0.144-0.12-0.32-0.0721-0.221-0.13-0.37-0.177-0.448-0.0928-0.157-0.219-0.288-0.372-0.39-0.153-0.103-0.331-0.165-0.533-0.189-0.307-0.037-0.6 0.014-0.883 0.149-0.281 0.138-0.519 0.361-0.711 0.669-0.192 0.309-0.317 0.691-0.372 1.15-0.0851 0.706 0.0363 1.29 0.365 1.75 0.286 0.398 0.654 0.623 1.11 0.678 0.208 0.0251 0.425 0.0163 0.647-0.0281 0.223-0.0439 0.438-0.121 0.645-0.234 0.153-0.0784 0.408-0.271 0.767-0.575zm5.47 0.308 0.335 0.289c-0.273 0.308-0.537 0.551-0.791 0.728-0.254 0.177-0.491 0.299-0.714 0.367-0.223 0.0667-0.483 0.0951-0.779 0.0853-0.531-0.0186-0.979-0.14-1.34-0.368-0.417-0.264-0.734-0.598-0.949-1.01-0.214-0.407-0.312-0.883-0.294-1.43 0.0186-0.568 0.146-1.05 0.379-1.45 0.233-0.396 0.551-0.704 0.955-0.924 0.404-0.218 0.866-0.32 1.39-0.302 0.387 0.014 0.722 0.083 1 0.213 0.281 0.13 0.517 0.319 0.709 0.568 0.19 0.249 0.325 0.531 0.406 0.845 0.0439 0.185 0.0656 0.423 0.0635 0.713l-3.82-0.126c-0.0186 0.177-0.0267 0.308-0.0298 0.395-0.0163 0.455 0.0512 0.865 0.198 1.23 0.146 0.362 0.348 0.632 0.603 0.809 0.255 0.177 0.549 0.27 0.882 0.281 0.281 0.0093 0.555-0.0484 0.823-0.173 0.267-0.123 0.594-0.373 0.982-0.746zm-0.616-2.2c-0.0428-0.333-0.112-0.582-0.205-0.742-0.0946-0.162-0.231-0.293-0.409-0.393-0.18-0.1-0.384-0.153-0.612-0.161-0.226-7e-3 -0.442 0.0318-0.643 0.12-0.201 0.0876-0.37 0.212-0.507 0.372-0.139 0.162-0.261 0.401-0.368 0.714zm4.4 3.04 0.0237 0.455-2.72 0.141-0.0235-0.455 0.135-7e-3c0.246-0.0116 0.417-0.0439 0.511-0.0914 0.0958-0.0495 0.157-0.116 0.183-0.2 0.0272-0.0849 0.0305-0.3 0.0116-0.648l-0.131-2.51c-0.0186-0.336-0.0411-0.545-0.0735-0.626-0.0321-0.0816-0.0967-0.145-0.197-0.188-0.1-0.0449-0.276-0.06-0.529-0.0467l-0.135 7e-3 -0.0237-0.455 2.72-0.141 0.0237 0.455-0.141 7e-3c-0.257 0.014-0.426 0.0426-0.509 0.086-0.083 0.0451-0.14 0.118-0.176 0.224-0.0335 0.104-0.0442 0.29-0.0302 0.556l0.0535 1.03 2.82-0.146-0.0535-1.03c-0.0209-0.388-0.0897-0.62-0.207-0.695-0.119-0.0756-0.321-0.106-0.605-0.0909l-0.141 7e-3 -0.0237-0.455 2.72-0.141 0.0235 0.455-0.189 0.0093c-0.3 0.0163-0.491 0.0718-0.573 0.171-0.0821 0.0988-0.113 0.314-0.0962 0.646l0.143 2.76c0.0186 0.333 0.0707 0.541 0.163 0.629 0.0916 0.0879 0.288 0.124 0.588 0.109l0.189-0.0093 0.0237 0.455-2.72 0.141-0.0237-0.455 0.141-7e-3c0.285-0.014 0.482-0.0658 0.593-0.151 0.109-0.0853 0.154-0.323 0.133-0.713l-0.0611-1.17-2.82 0.146 0.0609 1.17c0.014 0.261 0.0416 0.443 0.0858 0.544 0.0425 0.103 0.109 0.172 0.198 0.208 0.089 0.0342 0.26 0.046 0.517 0.0326zm7.95-3.52-0.0942-0.585c-0.0577-0.398-0.21-0.665-0.457-0.804-0.246-0.138-0.574-0.177-0.979-0.118-0.2 0.0288-0.372 0.0781-0.515 0.148-0.145 0.0716-0.256 0.155-0.334 0.252-0.0795 0.0974-0.133 0.202-0.162 0.315-0.0116 0.0426-0.033 0.199-0.0623 0.475-0.036 0.332-0.179 0.518-0.43 0.554-0.143 0.0209-0.265-0.0093-0.367-0.0911-0.102-0.0823-0.164-0.204-0.187-0.364-0.0342-0.236 0.0209-0.48 0.163-0.731 0.141-0.252 0.382-0.478 0.721-0.679 0.338-0.2 0.752-0.335 1.24-0.406 0.458-0.0663 0.86-0.0535 1.2 0.0407 0.347 0.0939 0.616 0.263 0.808 0.504 0.134 0.166 0.235 0.49 0.305 0.97l0.298 2.06c0.0423 0.291 0.0788 0.481 0.11 0.568 0.0607 0.148 0.147 0.252 0.257 0.315 0.108 0.0628 0.242 0.0828 0.4 0.06 0.165-0.024 0.358-0.089 0.576-0.197l0.0674 0.467c-0.286 0.129-0.546 0.21-0.784 0.244-0.255 0.037-0.474 0.033-0.659-0.014-0.184-0.0463-0.342-0.13-0.472-0.251-0.132-0.121-0.227-0.276-0.287-0.46-0.38 0.397-0.734 0.69-1.06 0.876-0.327 0.186-0.669 0.304-1.02 0.356-0.493 0.0711-0.913-0.0046-1.26-0.227-0.347-0.223-0.546-0.514-0.598-0.875-0.0314-0.218-5e-3 -0.431 0.0809-0.644 0.0853-0.212 0.232-0.411 0.442-0.595 0.211-0.182 0.557-0.367 1.03-0.554 0.48-0.186 1.15-0.388 2.02-0.609zm0.0632 0.462c-0.818 0.242-1.32 0.401-1.51 0.475-0.381 0.147-0.647 0.286-0.8 0.417-0.155 0.133-0.259 0.266-0.313 0.399-0.0535 0.133-0.0711 0.27-0.0512 0.41 0.0209 0.139 0.08 0.267 0.179 0.386 0.0997 0.12 0.23 0.206 0.387 0.26 0.159 0.0537 0.32 0.0679 0.487 0.0437 0.233-0.0337 0.49-0.127 0.769-0.282 0.279-0.153 0.625-0.423 1.04-0.811zm2.83 2.26-0.123-0.439c0.223-0.0621 0.373-0.152 0.449-0.27 0.0751-0.117 0.135-0.337 0.175-0.66l0.569-4.36 0.647-0.181 2.78 3.52c0.132 0.171 0.269 0.294 0.404 0.374 0.137 0.0788 0.316 0.0865 0.539 0.0244l0.123 0.439-2.4 0.669-0.123-0.439 0.146-0.0407c0.226-0.0632 0.375-0.124 0.445-0.184 0.0683-0.0574 0.0886-0.144 0.057-0.256-0.0242-0.0872-0.103-0.217-0.234-0.39l-2.01-2.65-0.32 3.3c-0.0233 0.214-0.0242 0.36-2e-3 0.442 0.0542 0.194 0.244 0.247 0.568 0.156l0.252-0.0702 0.123 0.439zm7.28-7.32-0.13 0.0535c-0.307 0.126-0.496 0.219-0.565 0.281-0.0709 0.0611-0.109 0.149-0.113 0.262-5e-3 0.112 0.0472 0.301 0.155 0.565l0.377 0.92 0.668-0.274c0.625-0.256 1.11-0.421 1.44-0.497 0.335-0.0753 0.653-0.0474 0.95 0.083 0.297 0.13 0.512 0.356 0.644 0.678 0.133 0.326 0.143 0.648 0.0323 0.967-0.113 0.32-0.313 0.588-0.604 0.806-0.291 0.217-0.686 0.427-1.18 0.63l-2.56 1.05-0.173-0.421 0.132-0.0539c0.243-0.0997 0.403-0.187 0.48-0.265 0.0756-0.0749 0.113-0.158 0.11-0.249-9.8e-4 -0.0916-0.0681-0.298-0.199-0.619l-1.26-3.08c-0.476 0.195-0.808 0.431-0.994 0.709-0.188 0.279-0.291 0.681-0.31 1.21l-0.516-0.0286 0.0779-2.04 0.35-0.143 0.133 0.222 2.88-1.18zm-0.0904 2.53 0.584 1.43c0.0758 0.185 0.139 0.291 0.19 0.314 0.0505 0.0253 0.159 0.0023 0.327-0.0658l0.481-0.197c0.942-0.386 1.29-0.887 1.03-1.51-0.0858-0.209-0.222-0.361-0.411-0.46-0.188-0.0972-0.381-0.13-0.579-0.101-0.199 0.0314-0.462 0.113-0.789 0.247z" fill="#ffb701" fill-rule="evenodd" stroke="#1b1918" stroke-width=".262"/>
</svg>
